[Header]
FileType HTR
DataType HTRS
FileVersion 1
NumSegments 64
NumFrames 3
DataFrameRate 24
EulerRotationOrder ZYX
CalibrationUnits mm
RotationUnits Degrees
GlobalAxisofGravity Y
BoneLengthAxis Y
ScaleFactor 1.0
[SegmentNames&Hierarchy]
Hips	GLOBAL
Spine	Hips
Spine1	Spine
Spine2	Spine1
Neck	Spine2
Head	Neck
LeftEye	Head
RightEye	Head
LeftShoulder	Spine2
LeftArm	LeftShoulder
LeftForeArm	LeftArm
LeftHand	LeftForeArm
LeftHandThumb1	LeftHand
LeftHandThumb2	LeftHandThumb1
LeftHandThumb3	LeftHandThumb2
LeftHandThumb4	LeftHandThumb3
LeftHandIndex1	LeftHand
LeftHandIndex2	LeftHandIndex1
LeftHandIndex3	LeftHandIndex2
LeftHandIndex4	LeftHandIndex3
LeftHandMiddle1	LeftHand
LeftHandMiddle2	LeftHandMiddle1
LeftHandMiddle3	LeftHandMiddle2
LeftHandMiddle4	LeftHandMiddle3
LeftHandRing1	LeftHand
LeftHandRing2	LeftHandRing1
LeftHandRing3	LeftHandRing2
LeftHandRing4	LeftHandRing3
LeftHandPinky1	LeftHand
LeftHandPinky2	LeftHandPinky1
LeftHandPinky3	LeftHandPinky2
LeftHandPinky4	LeftHandPinky3
RightShoulder	Spine2
RightArm	RightShoulder
RightForeArm	RightArm
RightHand	RightForeArm
RightHandPinky1	RightHand
RightHandPinky2	RightHandPinky1
RightHandPinky3	RightHandPinky2
RightHandPinky4	RightHandPinky3
RightHandRing1	RightHand
RightHandRing2	RightHandRing1
RightHandRing3	RightHandRing2
RightHandRing4	RightHandRing3
RightHandMiddle1	RightHand
RightHandMiddle2	RightHandMiddle1
RightHandMiddle3	RightHandMiddle2
RightHandMiddle4	RightHandMiddle3
RightHandIndex1	RightHand
RightHandIndex2	RightHandIndex1
RightHandIndex3	RightHandIndex2
RightHandIndex4	RightHandIndex3
RightHandThumb1	RightHand
RightHandThumb2	RightHandThumb1
RightHandThumb3	RightHandThumb2
RightHandThumb4	RightHandThumb3
LeftUpLeg	Hips
LeftLeg	LeftUpLeg
LeftFoot	LeftLeg
LeftToeBase	LeftFoot
RightUpLeg	Hips
RightLeg	RightUpLeg
RightFoot	RightLeg
RightToeBase	RightFoot
[BasePosition]
Hips	0	0	0	0	0	0	1
Spine	0	0	0	0	0	0	1
Spine1	0	0	0	0	0	0	1
Spine2	0	0	0	0	0	0	1
Neck	0	0	0	0	0	0	1
Head	0	0	0	0	0	0	1
LeftEye	0	0	0	0	0	0	1
RightEye	0	0	0	0	0	0	1
LeftShoulder	0	0	0	0	0	0	1
LeftArm	0	0	0	0	0	0	1
LeftForeArm	0	0	0	0	0	0	1
LeftHand	0	0	0	0	0	0	1
LeftHandThumb1	0	0	0	0	0	0	1
LeftHandThumb2	0	0	0	0	0	0	1
LeftHandThumb3	0	0	0	0	0	0	1
LeftHandThumb4	0	0	0	0	0	0	1
LeftHandIndex1	0	0	0	0	0	0	1
LeftHandIndex2	0	0	0	0	0	0	1
LeftHandIndex3	0	0	0	0	0	0	1
LeftHandIndex4	0	0	0	0	0	0	1
LeftHandMiddle1	0	0	0	0	0	0	1
LeftHandMiddle2	0	0	0	0	0	0	1
LeftHandMiddle3	0	0	0	0	0	0	1
LeftHandMiddle4	0	0	0	0	0	0	1
LeftHandRing1	0	0	0	0	0	0	1
LeftHandRing2	0	0	0	0	0	0	1
LeftHandRing3	0	0	0	0	0	0	1
LeftHandRing4	0	0	0	0	0	0	1
LeftHandPinky1	0	0	0	0	0	0	1
LeftHandPinky2	0	0	0	0	0	0	1
LeftHandPinky3	0	0	0	0	0	0	1
LeftHandPinky4	0	0	0	0	0	0	1
RightShoulder	0	0	0	0	0	0	1
RightArm	0	0	0	0	0	0	1
RightForeArm	0	0	0	0	0	0	1
RightHand	0	0	0	0	0	0	1
RightHandPinky1	0	0	0	0	0	0	1
RightHandPinky2	0	0	0	0	0	0	1
RightHandPinky3	0	0	0	0	0	0	1
RightHandPinky4	0	0	0	0	0	0	1
RightHandRing1	0	0	0	0	0	0	1
RightHandRing2	0	0	0	0	0	0	1
RightHandRing3	0	0	0	0	0	0	1
RightHandRing4	0	0	0	0	0	0	1
RightHandMiddle1	0	0	0	0	0	0	1
RightHandMiddle2	0	0	0	0	0	0	1
RightHandMiddle3	0	0	0	0	0	0	1
RightHandMiddle4	0	0	0	0	0	0	1
RightHandIndex1	0	0	0	0	0	0	1
RightHandIndex2	0	0	0	0	0	0	1
RightHandIndex3	0	0	0	0	0	0	1
RightHandIndex4	0	0	0	0	0	0	1
RightHandThumb1	0	0	0	0	0	0	1
RightHandThumb2	0	0	0	0	0	0	1
RightHandThumb3	0	0	0	0	0	0	1
RightHandThumb4	0	0	0	0	0	0	1
LeftUpLeg	0	0	0	0	0	0	1
LeftLeg	0	0	0	0	0	0	1
LeftFoot	0	0	0	0	0	0	1
LeftToeBase	0	0	0	0	0	0	1
RightUpLeg	0	0	0	0	0	0	1
RightLeg	0	0	0	0	0	0	1
RightFoot	0	0	0	0	0	0	1
RightToeBase	0	0	0	0	0	0	1
[Hips]
7	9.338850975	965.1716309	948.5881958	10.23785591	4.815690041	-0.2721414864	1.0
8	17.27244949	931.2207031	1101.713989	9.543668747	8.400710106	2.742634296	1.0
9	24.93218422	917.1017456	1256.574463	10.81228638	9.728358269	5.11222887	1.0
[Spine]
7	0	101.8159943	1.315000057	2.646912813	4.545591354	1.781410813	1.0
8	0	101.8159943	1.315000057	2.536409378	3.239015102	1.209132552	1.0
9	0	101.8159943	1.315000057	1.252193928	3.288850069	0.6077824235	1.0
[Spine1]
7	0	100.8349991	-10.00800037	6.44999361	5.141189098	-3.79545331	1.0
8	0	100.8349991	-10.00800037	7.402544498	2.679148436	-4.795101643	1.0
9	0	100.8349991	-10.00800037	7.190730095	1.189871669	-5.359883785	1.0
[Spine2]
7	0	91	-13.73399925	3.592190981	4.835114002	0.8596792817	1.0
8	0	91	-13.73399925	4.410131454	2.334957361	-0.2366932184	1.0
9	0	91	-13.73399925	4.122980118	0.8090013266	-0.8634121418	1.0
[Neck]
7	0	166.7169952	-25.16200066	-6.843008995	-2.386786699	-0.9450973272	1.0
8	0	166.7169952	-25.16200066	-6.28667593	-2.132317066	1.266979098	1.0
9	0	166.7169952	-25.16200066	-2.711678743	-1.802545905	1.349935651	1.0
[Head]
7	0	96.17900085	16.84999847	-23.42444801	-12.4943161	2.775625944	1.0
8	0	96.17900085	16.84999847	-23.48069382	-10.10726833	1.224246621	1.0
9	0	96.17900085	16.84999847	-24.7717762	-9.275418282	1.242949486	1.0
[LeftEye]
7	30.6760006	64.09500122	92.83599854	0	0	0	1.0
8	30.6760006	64.09500122	92.83599854	0	0	0	1.0
9	30.6760006	64.09500122	92.83599854	0	0	0	1.0
[RightEye]
7	-30.6760006	64.09500122	92.83499908	0	0	0	1.0
8	-30.6760006	64.09500122	92.83499908	0	0	0	1.0
9	-30.6760006	64.09500122	92.83499908	0	0	0	1.0
[LeftShoulder]
7	45.70400238	109.4599991	-26.28000069	0.1613599062	-7.047413826	-14.56504154	1.0
8	45.70400238	109.4599991	-26.28000069	1.037623644	-7.872778893	-18.65487099	1.0
9	45.70400238	109.4599991	-26.28000069	2.673393011	-11.14976883	-22.91940308	1.0
[LeftArm]
7	105.923996	-5.24600029	-22.32099915	8.425354958	25.2326107	-40.83966064	1.0
8	105.923996	-5.24600029	-22.32099915	6.572489738	11.59372616	-41.06251907	1.0
9	105.923996	-5.24600029	-22.32099915	4.814297199	-2.173823357	-41.51343918	1.0
[LeftForeArm]
7	278.414978	-0.0009999999311	0	-0.0001373291016	-99.3397522	-0.0001220703125	1.0
8	278.414978	-0.0009999999311	0	-0.001113891602	-90.39141846	0.0005340576172	1.0
9	278.414978	-0.0009999999311	0	-4.9496477e-05	-80.69562531	-0.0001331828535	1.0
[LeftHand]
7	283.2879944	0	0	-18.23886681	14.08637905	10.54315853	1.0
8	283.2879944	0	0	-9.442416191	7.353546143	9.322016716	1.0
9	283.2879944	0	0	-0.4950894713	3.306963921	6.73099184	1.0
[LeftHandThumb1]
7	24.6609993	-15.75	26.8239994	12.36618614	-3.40239501	9.637267113	1.0
8	24.6609993	-15.75	26.8239994	12.36617279	-3.402397633	9.637265205	1.0
9	24.6609993	-15.75	26.8239994	12.36618233	-3.402382374	9.637274742	1.0
[LeftHandThumb2]
7	32.29800034	-18.64699936	18.64699936	-3.747103214	9.591192245	13.79722786	1.0
8	32.29800034	-18.64699936	18.64699936	-3.420769215	12.6916399	9.128160477	1.0
9	32.29800034	-18.64699936	18.64699936	-2.885443687	14.87501431	5.704246998	1.0
[LeftHandThumb3]
7	26.52600098	-15.31499958	15.31499958	8.082720757	-9.196631432	-4.480235577	1.0
8	26.52600098	-15.31499958	15.31499958	7.708582401	-8.027226448	-1.725466728	1.0
9	26.52600098	-15.31499958	15.31499958	6.191706181	-4.9646945	-0.1287853122	1.0
[LeftHandThumb4]
7	19.54599953	-11.28499985	11.28499985	0	0	0	1.0
8	19.54599953	-11.28499985	11.28499985	0	0	0	1.0
9	19.54599953	-11.28499985	11.28499985	0	0	0	1.0
[LeftHandIndex1]
7	91.09299469	-5.170999527	22.60099792	-5.571843147	7.461616516	-49.99384308	1.0
8	91.09299469	-5.170999527	22.60099792	-6.316308498	8.041869164	-52.22256088	1.0
9	91.09299469	-5.170999527	22.60099792	-7.905750275	8.237949371	-62.83624268	1.0
[LeftHandIndex2]
7	36.76399994	0	0	-2.881016731	5.064721107	-52.67669296	1.0
8	36.76399994	0	0	-2.979680538	5.119139194	-53.78832245	1.0
9	36.76399994	0	0	-3.298618793	5.278622627	-57.30693817	1.0
[LeftHandIndex3]
7	28.83100128	0	0	-1.339931846	3.456506491	-39.59234238	1.0
8	28.83100128	0	0	-1.411548972	3.541274548	-40.69915771	1.0
9	28.83100128	0	0	-1.648499489	3.799786091	-44.19765472	1.0
[LeftHandIndex4]
7	23.92700005	0	0	0	0	0	1.0
8	23.92700005	0	0	0	0	0	1.0
9	23.92700005	0	0	0	0	0	1.0
[LeftHandMiddle1]
7	95.33399963	0	0	-7.420082569	10.86552525	-59.26115036	1.0
8	95.33399963	0	0	-7.751117229	11.09316063	-61.61828995	1.0
9	95.33399963	0	0	-9.017942429	9.949409485	-71.19155884	1.0
[LeftHandMiddle2]
7	36.98199844	0	0	-3.408796549	5.220118999	-57.59610367	1.0
8	36.98199844	0	0	-3.69840312	5.334436893	-60.68009186	1.0
9	36.98199844	0	0	-3.722596645	5.343185425	-60.93494797	1.0
[LeftHandMiddle3]
7	29.50900078	0	0	-1.830902696	4.353923798	-46.23429489	1.0
8	29.50900078	0	0	-2.095053196	4.582000732	-49.75447464	1.0
9	29.50900078	0	0	-2.177780867	4.647843838	-50.82089615	1.0
[LeftHandMiddle4]
7	28.3390007	0	0	0	0	0	1.0
8	28.3390007	0	0	0	0	0	1.0
9	28.3390007	0	0	0	0	0	1.0
[LeftHandRing1]
7	91.04499817	-0.4390000105	-18.65100098	-7.04892683	7.214570522	-57.69054031	1.0
8	91.04499817	-0.4390000105	-18.65100098	-7.366374016	6.904868603	-60.08874893	1.0
9	91.04499817	-0.4390000105	-18.65100098	-8.831191063	6.964265823	-70.81956482	1.0
[LeftHandRing2]
7	31.54000092	0	0	-2.111511707	4.979917049	-53.38362122	1.0
8	31.54000092	0	0	-2.346118927	5.158153534	-56.36664963	1.0
9	31.54000092	0	0	-2.505188465	5.268497944	-58.32679749	1.0
[LeftHandRing3]
7	29.37700081	0	0	-1.644737124	4.624528408	-51.28378677	1.0
8	29.37700081	0	0	-1.861134052	4.82472229	-54.25632095	1.0
9	29.37700081	0	0	-2.009679079	4.950683117	-56.22034836	1.0
[LeftHandRing4]
7	26.47500038	0	0	0	0	0	1.0
8	26.47500038	0	0	0	0	0	1.0
9	26.47500038	0	0	0	0	0	1.0
[LeftHandPinky1]
7	80.77799988	-4.887000084	-38.06099701	-11.8942709	9.298612595	-75.89408875	1.0
8	80.77799988	-4.887000084	-38.06099701	-11.84393692	8.174969673	-80.75478363	1.0
9	80.77799988	-4.887000084	-38.06099701	-12.47146893	7.491381168	-87.08359528	1.0
[LeftHandPinky2]
7	36	0	0	-2.397675514	4.173984051	-51.43955231	1.0
8	36	0	0	-2.605366468	4.314641953	-53.95614624	1.0
9	36	0	0	-2.824033737	4.44893837	-56.53105927	1.0
[LeftHandPinky3]
7	21.14200211	0	0	-1.960987687	4.696885586	-44.10276794	1.0
8	21.14200211	0	0	-2.154601336	4.857312202	-46.62005997	1.0
9	21.14200211	0	0	-2.359799862	5.012461185	-49.1958313	1.0
[LeftHandPinky4]
7	19.75699997	0	0	0	0	0	1.0
8	19.75699997	0	0	0	0	0	1.0
9	19.75699997	0	0	0	0	0	1.0
[RightShoulder]
7	-45.70000076	109.4620056	-26.28000069	-3.772803068	15.4374876	5.379160881	1.0
8	-45.70000076	109.4620056	-26.28000069	-3.720297813	12.50548267	8.18500042	1.0
9	-45.70000076	109.4620056	-26.28000069	-4.161466599	6.308694363	16.12577629	1.0
[RightArm]
7	-105.9280014	-5.248000145	-22.32099915	-2.73501873	25.80833244	39.65963364	1.0
8	-105.9280014	-5.248000145	-22.32099915	10.09843063	18.02565575	43.22284698	1.0
9	-105.9280014	-5.248000145	-22.32099915	23.45829391	7.421481133	38.94588852	1.0
[RightForeArm]
7	-278.414978	0	0	-7.122544199e-15	71.64961243	1.665249272e-07	1.0
8	-278.414978	0	0	7.253517651e-06	66.00479126	1.331512067e-05	1.0
9	-278.414978	0	0	5.166266055e-05	73.61606598	7.926407125e-05	1.0
[RightHand]
7	-283.2879944	0	0.0009999999311	-8.503562927	37.5153656	0.4296013713	1.0
8	-283.2879944	0	0.0009999999311	-3.014397621	40.92993546	2.611331224	1.0
9	-283.2879944	0	0.0009999999311	-5.551494598	13.86878681	-11.13100338	1.0
[RightHandPinky1]
7	-80.76699829	-4.885000229	-38.06000137	-12.50942993	-10.54830074	77.34600067	1.0
8	-80.76699829	-4.885000229	-38.06000137	-12.61798382	-11.16404819	75.20631409	1.0
9	-80.76699829	-4.885000229	-38.06000137	-11.83062744	-9.872821808	76.44919586	1.0
[RightHandPinky2]
7	-36	0	0.0009999999311	-5.078030109	-5.192935944	80.55480194	1.0
8	-36	0	0.0009999999311	-5.172710419	-5.20263958	81.51036835	1.0
9	-36	0	0.0009999999311	-5.359490395	-5.217090607	83.39157104	1.0
[RightHandPinky3]
7	-21.14200211	0	0	-2.368445635	-1.879121542	47.39475632	1.0
8	-21.14200211	0	0	-2.444133043	-1.936589956	48.34423447	1.0
9	-21.14200211	0	0	-2.595831871	-2.046029091	50.21367264	1.0
[RightHandPinky4]
7	-19.75699997	0	0	0	0	0	1.0
8	-19.75699997	0	0	0	0	0	1.0
9	-19.75699997	0	0	0	0	0	1.0
[RightHandRing1]
7	-91.03599548	-0.4390000105	-18.65100098	-9.387256622	-7.49849987	74.86943054	1.0
8	-91.03599548	-0.4390000105	-18.65100098	-9.10128212	-7.8771348	72.5160141	1.0
9	-91.03599548	-0.4390000105	-18.65100098	-9.399216652	-7.497226238	74.96335602	1.0
[RightHandRing2]
7	-31.54000092	0	0	-3.483032942	-5.791021824	69.58015442	1.0
8	-31.54000092	0	0	-3.466000319	-5.783937454	69.39317322	1.0
9	-31.54000092	0	0	-3.444483995	-5.774879932	69.15666962	1.0
[RightHandRing3]
7	-29.37700081	0	0	-1.891813159	-2.939290762	53.58966064	1.0
8	-29.37700081	0	0	-1.878061533	-2.926883221	53.40329742	1.0
9	-29.37700081	0	0	-1.860820293	-2.911185265	53.16849136	1.0
[RightHandRing4]
7	-26.47500038	0	0	0	0	0	1.0
8	-26.47500038	0	0	0	0	0	1.0
9	-26.47500038	0	0	0	0	0	1.0
[RightHandMiddle1]
7	-95.32500458	0	0	-6.514182091	-7.981118679	53.00688934	1.0
8	-95.32500458	0	0	-5.960540771	-8.102549553	49.06764603	1.0
9	-95.32500458	0	0	-7.055057049	-7.284807682	56.9287529	1.0
[RightHandMiddle2]
7	-36.98199844	0	0	-4.007223129	-5.436534405	63.90842056	1.0
8	-36.98199844	0	0	-3.963234186	-5.423090935	63.45282364	1.0
9	-36.98199844	0	0	-3.906423092	-5.405145168	62.86269379	1.0
[RightHandMiddle3]
7	-29.50900078	0	0	-2.62127614	-4.798880577	56.18904114	1.0
8	-29.50900078	0	0	-2.583189011	-4.774286747	55.73179626	1.0
9	-29.50900078	0	0	-2.53559041	-4.742959499	55.15671921	1.0
[RightHandMiddle4]
7	-28.3390007	0	0.0009999999311	0	0	0	1.0
8	-28.3390007	0	0.0009999999311	0	0	0	1.0
9	-28.3390007	0	0.0009999999311	0	0	0	1.0
[RightHandIndex1]
7	-91.08300018	-5.167999744	22.60099792	-4.932786465	-8.172124863	52.71855545	1.0
8	-91.08300018	-5.167999744	22.60099792	-5.146475792	-9.108573914	48.63856506	1.0
9	-91.08300018	-5.167999744	22.60099792	-5.00630188	-7.93586731	54.47543335	1.0
[RightHandIndex2]
7	-36.76399994	0	0	-3.342268229	-5.298063278	57.78457642	1.0
8	-36.76399994	0	0	-3.333961725	-5.294324398	57.6947403	1.0
9	-36.76399994	0	0	-3.333068371	-5.293914318	57.68491745	1.0
[RightHandIndex3]
7	-28.83100128	0	0	-2.000831604	-3.079138041	48.34060287	1.0
8	-28.83100128	0	0	-1.994134307	-3.073170662	48.25115585	1.0
9	-28.83100128	0	0	-1.993391395	-3.072517872	48.24137115	1.0
[RightHandIndex4]
7	-23.92700005	0	0	0	0	0	1.0
8	-23.92700005	0	0	0	0	0	1.0
9	-23.92700005	0	0	0	0	0	1.0
[RightHandThumb1]
7	-24.64799881	-15.72700024	26.82600021	0.7978695631	1.726762533	-6.547077179	1.0
8	-24.64799881	-15.72700024	26.82600021	1.867452025	-0.4791535139	-6.768667698	1.0
9	-24.64799881	-15.72700024	26.82600021	2.933063984	-2.875847578	-6.931744099	1.0
[RightHandThumb2]
7	-32.29800034	-18.64699936	18.64699936	4.450273991	-22.70461082	-4.580922127	1.0
8	-32.29800034	-18.64699936	18.64699936	4.450273991	-22.70461082	-4.580922127	1.0
9	-32.29800034	-18.64699936	18.64699936	4.450273991	-22.70461082	-4.580922127	1.0
[RightHandThumb3]
7	-26.52600098	-15.31399918	15.31399918	-12.58338261	9.9640131	3.83227396	1.0
8	-26.52600098	-15.31399918	15.31399918	-12.58338261	9.9640131	3.83227396	1.0
9	-26.52600098	-15.31399918	15.31399918	-12.58338261	9.9640131	3.83227396	1.0
[RightHandThumb4]
7	-19.54599953	-11.28499985	11.28499985	0	0	0	1.0
8	-19.54599953	-11.28499985	11.28499985	0	0	0	1.0
9	-19.54599953	-11.28499985	11.28499985	0	0	0	1.0
[LeftUpLeg]
7	82.07800293	-67.51699829	-15.99599934	-42.49364471	-0.4263593853	-5.733572006	1.0
8	82.07800293	-67.51699829	-15.99599934	-43.46501923	-5.280558109	-8.24507618	1.0
9	82.07800293	-67.51699829	-15.99599934	-36.10508728	-7.580079556	-10.65250492	1.0
[LeftLeg]
7	0	-443.7049866	2.845999956	24.51695633	-2.530931234	-2.913014889	1.0
8	0	-443.7049866	2.845999956	48.03536987	-1.216025352	-2.113665104	1.0
9	0	-443.7049866	2.845999956	53.67967987	-1.304394722	-0.9362872839	1.0
[LeftFoot]
7	0	-444.2789917	-29.8219986	6.504395485	-1.12561655	6.999324799	1.0
8	0	-444.2789917	-29.8219986	-13.24551487	0.9893051982	7.242660999	1.0
9	0	-444.2789917	-29.8219986	-27.02795029	1.867632747	6.840038776	1.0
[LeftToeBase]
7	0	-87.28699493	107.1060028	-3.186740637	1.123668198e-07	-1.986605298e-07	1.0
8	0	-87.28699493	107.1060028	-1.765412927	9.804355159e-07	-1.238847631e-06	1.0
9	0	-87.28699493	107.1060028	-3.129920959	-1.761452495e-06	-2.198896027e-06	1.0
[RightUpLeg]
7	-82.07800293	-67.51699829	-15.99599934	-6.120227814	-12.60534859	2.6726408	1.0
8	-82.07800293	-67.51699829	-15.99599934	-12.78740597	-14.88113785	-3.648355246	1.0
9	-82.07800293	-67.51699829	-15.99599934	-25.68192863	-16.05120087	-7.827981949	1.0
[RightLeg]
7	0	-443.7049866	2.861999989	85.49803925	5.146952629	-4.321865559	1.0
8	0	-443.7049866	2.861999989	102.1325531	2.593165874	-3.180109501	1.0
9	0	-443.7049866	2.861999989	109.6066666	1.550366521	-1.993998051	1.0
[RightFoot]
7	0	-444.2770081	-29.83799934	3.096568346	-15.59558392	10.73069668	1.0
8	0	-444.2770081	-29.83799934	0.2881658673	-17.40144348	7.441325665	1.0
9	0	-444.2770081	-29.83799934	-4.039715767	-15.44785213	0.9630590677	1.0
[RightToeBase]
7	0	-87.28699493	107.1060028	1.382244825	9.088843399e-06	-3.602544894e-06	1.0
8	0	-87.28699493	107.1060028	-0.9289536476	6.600312645e-06	-5.730736575e-06	1.0
9	0	-87.28699493	107.1060028	-0.5688697696	4.673552667e-06	-4.169776275e-06	1.0
[EndOfFile]
